<?xml version="1.0" encoding="iso-8859-1"?>
<!-- Uploaded to: SVG Repo, www.svgrepo.com, Generator: SVG Repo Mixer Tools -->
<svg height="800px" width="800px" version="1.1" id="Layer_1" xmlns="http://www.w3.org/2000/svg" xmlns:xlink="http://www.w3.org/1999/xlink" 
	 viewBox="0 0 512 512" xml:space="preserve">
<path style="fill:#C7E9F4;" d="M428.864,512H83.136c-11.104,0-20.107-9.002-20.107-20.107V20.107C63.03,9.002,72.032,0,83.136,0
	h345.727c11.104,0,20.107,9.002,20.107,20.107v471.787C448.97,502.998,439.968,512,428.864,512z"/>
<path style="fill:#80D0E1;" d="M428.864,0H256v512h172.864c11.104,0,20.107-9.002,20.107-20.107V20.107
	C448.97,9.002,439.968,0,428.864,0z"/>
<g>
	<path style="fill:#6A82A1;" d="M205.33,305.42c11.104,0,20.107-9.002,20.107-20.107v-51.763h61.128v51.763
		c0,11.104,9.002,20.107,20.107,20.107c11.104,0,20.107-9.002,20.107-20.107v-143.74c0-11.104-9.002-20.107-20.107-20.107
		c-11.104,0-20.107,9.002-20.107,20.107v51.763h-61.128v-51.763c0-11.104-9.002-20.107-20.107-20.107s-20.107,9.002-20.107,20.107
		v143.74C185.223,296.418,194.226,305.42,205.33,305.42z"/>
	<path style="fill:#6A82A1;" d="M144.797,61.66c-11.104,0-20.107,9.002-20.107,20.107v30.74c0,11.104,9.002,20.107,20.107,20.107
		c11.104,0,20.107-9.002,20.107-20.107v-30.74C164.903,70.663,155.902,61.66,144.797,61.66z"/>
	<path style="fill:#6A82A1;" d="M205.33,367.661H256c11.104,0,20.107-9.002,20.107-20.107c0-11.104-9.002-20.107-20.107-20.107
		h-50.67c-11.104,0-20.107,9.002-20.107,20.107C185.223,358.659,194.226,367.661,205.33,367.661z"/>
	<path style="fill:#6A82A1;" d="M310.523,384.737H205.33c-11.104,0-20.107,9.002-20.107,20.107c0,11.104,9.002,20.107,20.107,20.107
		h105.193c11.104,0,20.107-9.002,20.107-20.107C330.629,393.739,321.627,384.737,310.523,384.737z"/>
</g>
<g>
	<path style="fill:#36495E;" d="M306.671,121.467c-11.104,0-20.107,9.002-20.107,20.107v51.763h-30.563v40.213h30.563v51.763
		c0,11.104,9.002,20.107,20.107,20.107c11.104,0,20.107-9.002,20.107-20.107V141.574
		C326.778,130.469,317.776,121.467,306.671,121.467z"/>
	<path style="fill:#36495E;" d="M256,327.448v40.213c11.104,0,20.107-9.002,20.107-20.107
		C276.107,336.45,267.106,327.448,256,327.448z"/>
	<path style="fill:#36495E;" d="M310.523,384.737H256v40.213h54.523c11.104,0,20.107-9.002,20.107-20.107
		C330.629,393.739,321.627,384.737,310.523,384.737z"/>
</g>
</svg>